<svg xmlns="http://www.w3.org/2000/svg" width="100%" viewBox="0 0 500 410" preserveAspectRatio="xMidYMin slice"><path fill="#fff" d="M435.103 342.497c-.686-6.656-1.027-9.98-1.716-16.638-2.32 2.271-3.482 3.408-5.805 5.677.672 6.624 1.007 9.934 1.678 16.558l5.843-5.597zM73.993 307.438c-2.298-2.317-3.45-3.476-5.749-5.792l-1.718 16.638c2.314 2.284 3.472 3.426 5.787 5.709.672-6.624 1.009-9.935 1.68-16.555zM425.27 308.715l1.681 16.555 5.788-5.708c-.689-6.655-1.031-9.981-1.719-16.638l-5.75 5.791zM479.32 327.08l-2.01-17.226c-2.342 2.225-3.514 3.337-5.859 5.561l1.969 17.142c2.36-2.191 3.539-3.287 5.9-5.477zM441.254 292.608l-5.747 5.792c.701 6.682 1.051 10.021 1.748 16.703 2.316-2.283 3.476-3.425 5.788-5.708l-1.789-16.787zM99.796 201.891l-76.981 40.262 57 58.243zM468.927 291.084l1.969 17.15c2.336-2.237 3.505-3.358 5.844-5.595-.806-6.894-1.207-10.339-2.012-17.231-2.321 2.273-3.48 3.408-5.801 5.676zM19.944 325.803c2.361 2.188 3.539 3.283 5.899 5.477l1.97-17.143-5.861-5.559c-.804 6.889-1.203 10.334-2.008 17.225zM437.272 366.111c-.687-6.653-1.028-9.981-1.714-16.636l-5.86 5.561 1.677 16.553 5.897-5.478zM466.331 312.604c-.775-6.833-1.164-10.249-1.94-17.082l-5.8 5.677c.758 6.801 1.137 10.2 1.898 17 2.334-2.238 3.504-3.359 5.842-5.595zM468.809 336.836c-.775-6.83-1.16-10.244-1.936-17.075l-5.858 5.56 1.893 16.996c2.361-2.193 3.538-3.288 5.901-5.481zM471.956 261.661l-5.746 5.791 1.972 17.147 5.785-5.71c-.804-6.89-1.205-10.336-2.011-17.228zM461.722 271.978c-2.299 2.315-3.447 3.475-5.746 5.792.758 6.798 1.137 10.195 1.896 16.996 2.314-2.285 3.471-3.425 5.784-5.707-.774-6.833-1.159-10.249-1.934-17.081zM458.297 346.596c-.746-6.772-1.12-10.159-1.865-16.932-2.344 2.226-3.51 3.338-5.856 5.562.729 6.737 1.09 10.108 1.818 16.846 2.361-2.189 3.543-3.285 5.903-5.476zM447.786 356.354l-1.789-16.78c-2.346 2.224-3.513 3.335-5.858 5.56l1.747 16.699c2.359-2.192 3.541-3.29 5.9-5.479zM451.487 282.293c-2.298 2.316-3.448 3.476-5.747 5.791l1.827 16.853c2.312-2.285 3.47-3.428 5.785-5.71-.746-6.775-1.12-10.162-1.865-16.934zM445.514 332.532c-.716-6.714-1.075-10.07-1.792-16.786-2.319 2.272-3.479 3.408-5.8 5.676.698 6.685 1.05 10.025 1.748 16.705 2.338-2.236 3.508-3.355 5.844-5.595zM455.924 322.569c-.746-6.774-1.119-10.161-1.866-16.935-2.319 2.271-3.482 3.406-5.803 5.676.731 6.741 1.096 10.111 1.825 16.854l5.844-5.595zM59.125 343.855l-5.856-5.562-1.791 16.779 5.901 5.481c.699-6.68 1.046-10.02 1.746-16.698zM411.539 394.295l3.865-89.911-106.012-22.9-.063.112-7.705-1.762c5.368-9.062 8.463-19.652 8.463-30.975 0-33.415-26.876-60.503-60.026-60.503-33.151 0-60.026 27.088-60.026 60.503 0 10.856 2.851 21.034 7.818 29.844l-8.28 1.892-106.389 23.549 3.875 90.151-64.676 15.338.429.505h167.264l17.425-30.825h82.873l.268 2.055 16.034 28.771h86.411c-4.253-.584-6.378-.876-10.631-1.456.59-10.015.885-15.022 1.478-25.039 4.448.764 6.669 1.148 11.117 1.913-.784 9.832-1.179 14.749-1.964 24.582h82.668l.459-.505-64.675-15.339zm-317.799-78.256c4.988-1.27 7.483-1.905 12.472-3.176l1.496 25.018c-4.794 1.088-7.19 1.631-11.984 2.72l-1.984-24.562zm2.735 33.856c4.721-1.02 7.082-1.529 11.803-2.55.599 10.009.897 15.013 1.497 25.021-4.526.836-6.788 1.256-11.314 2.093-.795-9.825-1.192-14.738-1.986-24.564zm5.213 59.022l-1.964-24.58c4.449-.763 6.671-1.148 11.12-1.913l1.477 25.038-10.633 1.455zm14.268-98.535c4.988-1.27 7.484-1.903 12.472-3.174l.633 25.822-11.987 2.722-1.118-25.37zm1.542 34.971c4.721-1.018 7.082-1.526 11.803-2.548l.63 25.829-11.316 2.094-1.117-25.375zm3.132 60.97c-.439-10.156-.659-15.232-1.099-25.389 4.448-.764 6.674-1.148 11.123-1.913.245 10.339.365 15.509.611 25.847-4.254.581-6.381.873-10.635 1.455zm17.891-65.51c4.721-1.02 7.082-1.529 11.803-2.55-.093 10.655-.139 15.982-.231 26.638-4.527.838-6.79 1.259-11.316 2.096-.103-10.475-.154-15.711-.256-26.184zm11.687 61.464c-4.254.582-6.38.87-10.635 1.454-.092-10.479-.138-15.719-.231-26.201l11.12-1.908c-.102 10.662-.153 15.992-.254 26.655zm.206-74.092c-4.795 1.089-7.194 1.633-11.989 2.721-.101-10.472-.15-15.706-.252-26.182 4.989-1.268 7.485-1.903 12.475-3.174-.094 10.653-.141 15.98-.234 26.635zm18.736 71.498c-4.254.583-6.382.875-10.636 1.456.253-10.803.384-16.207.636-27.011 4.449-.764 6.669-1.145 11.118-1.908-.447 10.985-.67 16.479-1.118 27.463zm1.1-38.51c-4.527.835-6.791 1.256-11.317 2.093l.613-26.992c4.72-1.021 7.082-1.53 11.802-2.549-.439 10.978-.658 16.466-1.098 27.448zm1.514-37.835c-4.794 1.088-7.193 1.635-11.988 2.724.246-10.799.369-16.197.614-26.992 4.989-1.271 7.484-1.907 12.472-3.177l-1.098 27.445zm16.327 73.751c-4.253.585-6.378.874-10.632 1.455l1.498-27.818c4.447-.764 6.673-1.146 11.12-1.908-.793 11.307-1.194 16.962-1.986 28.271zm2.315-39.65c-4.526.839-6.789 1.259-11.315 2.094.59-11.121.888-16.679 1.479-27.8 4.72-1.02 7.079-1.53 11.799-2.551-.784 11.303-1.177 16.956-1.963 28.257zm2.707-38.948c-4.794 1.089-7.193 1.634-11.987 2.722l1.48-27.802c4.988-1.271 7.479-1.904 12.468-3.176-.785 11.303-1.177 16.954-1.961 28.256zm69.783-114.027c1.766 0 3.423.465 4.859 1.271l-4.859 7.476 9.613-1.368c.222.827.351 1.689.351 2.584 0 5.504-4.461 9.964-9.964 9.964-5.502 0-9.963-4.46-9.963-9.964 0-5.502 4.461-9.963 9.963-9.963zm-31.581 0c1.767 0 3.422.465 4.861 1.271l-4.861 7.476 9.613-1.368c.221.827.351 1.689.351 2.584 0 5.504-4.46 9.964-9.964 9.964-5.502 0-9.962-4.46-9.962-9.964 0-5.502 4.46-9.963 9.962-9.963zm46.231 76.162l12.463 95.888-2.616-4.69h-76.709l-2.598 4.645 12.126-95.721c-13.081-9.068-21.654-24.183-21.654-41.306 0-1.563.082-3.106.221-4.633h100.03c.14 1.526.221 3.069.221 4.633-.001 17.047-8.5 32.102-21.484 41.184zm22.156 10.827l12.469 3.177c.59 11.118.89 16.68 1.479 27.8-4.792-1.088-7.192-1.632-11.985-2.721-.786-11.303-1.178-16.952-1.963-28.256zm2.704 38.949l11.801 2.55c.589 11.12.886 16.679 1.478 27.801-4.527-.838-6.788-1.256-11.316-2.096-.785-11.3-1.177-16.953-1.963-28.255zm4.278 67.907c-.792-11.31-1.19-16.965-1.983-28.275l11.119 1.911c.6 11.128.898 16.691 1.499 27.817-4.257-.58-6.382-.87-10.635-1.453zm15.231-101.198c4.987 1.271 7.481 1.906 12.47 3.176.245 10.796.369 16.194.615 26.992-4.796-1.089-7.192-1.637-11.988-2.725l-1.097-27.443zm13.315 40.381l.611 26.992c-4.524-.837-6.789-1.259-11.316-2.095l-1.097-27.446c4.72 1.019 7.081 1.529 11.802 2.549zm-9.606 63.41c-.445-10.986-.67-16.479-1.116-27.465 4.448.765 6.668 1.146 11.116 1.909.253 10.805.383 16.209.637 27.009l-10.637-1.453zm29.58 4.048c-4.256-.583-6.382-.873-10.637-1.454-.102-10.664-.151-15.994-.252-26.657 4.448.765 6.67 1.146 11.117 1.91-.089 10.48-.136 15.722-.228 26.201zm.797-36.735c-4.528-.838-6.792-1.257-11.316-2.096-.094-10.655-.139-15.982-.232-26.638l11.801 2.552c-.103 10.472-.151 15.708-.253 26.182zm.349-36.09c-4.795-1.089-7.192-1.632-11.987-2.722-.094-10.655-.142-15.981-.233-26.635 4.988 1.271 7.485 1.905 12.474 3.174-.103 10.474-.153 15.71-.254 26.183zm17.796 75.418c-4.255-.583-6.382-.874-10.637-1.456l.613-25.848c4.448.765 6.672 1.148 11.12 1.912-.437 10.158-.657 15.236-1.096 25.392zm2.014-36.552c-4.525-.963-6.789-1.443-11.315-2.403.251-11.852.378-17.779.631-29.633l11.803 2.926c-.447 11.643-.671 17.467-1.119 29.11zm1.54-34.02l-11.986-2.722c.254-10.33.38-15.493.633-25.824 4.988 1.271 7.485 1.906 12.473 3.176-.448 10.148-.671 15.221-1.12 25.37zm18.617 38.707c-4.529-.837-6.789-1.258-11.314-2.095.6-10.008.896-15.012 1.495-25.02l11.802 2.55-1.983 24.565zm2.735-33.861l-11.983-2.72 1.496-25.017 12.471 3.178c-.793 9.823-1.189 14.736-1.984 24.559zM38.25 324.042l-5.86-5.561-1.933 17.077 5.9 5.48c.757-6.797 1.135-10.197 1.893-16.996zM27.309 260.382c-.806 6.893-1.207 10.34-2.011 17.23l5.784 5.71 1.972-17.147c-2.299-2.317-3.447-3.475-5.745-5.793zM248.793 263.243c-22.909 0-34.992-6.058-40.834-10.594 1.928 8.713 6.574 16.399 13.01 22.125l.009-.069.238.284c7.338 6.427 16.942 10.33 27.463 10.33 19.783 0 36.338-13.777 40.625-32.257-5.391 4.566-16.825 10.181-40.511 10.181zM246.336 310.355l-5.457 7.488h16.388l-5.448-7.488zM248.793 261.243c26.815 0 37.338-7.412 41.169-11.669.28-1.951.433-3.943.433-5.972 0-1.297-.068-2.578-.184-3.848h-83.064c-.116 1.27-.183 2.551-.183 3.848 0 1.996.149 3.957.42 5.879 4.578 4.199 16.306 11.762 41.409 11.762zM71.68 330.259l-5.803-5.677-1.717 16.638 5.843 5.596 1.677-16.557zM227.789 341.243l-4.189 7.487h50.906l-4.18-7.487zM40.673 299.921c-2.321-2.272-3.481-3.408-5.802-5.677l-1.938 17.081 5.843 5.595c.76-6.799 1.139-10.2 1.897-16.999zM230.726 286.316l18.151 21.621 18.234-21.719c-5.677 2.225-11.851 3.46-18.317 3.46-6.372.001-12.46-1.198-18.068-3.362zM63.756 297.121l-5.745-5.791-1.792 16.787c2.315 2.284 3.474 3.426 5.789 5.708l1.748-16.704zM417.946 301.249l57.065-58.35-76.992-40.269zM61.343 320.145c-2.321-2.269-3.479-3.405-5.8-5.677-.718 6.716-1.075 10.072-1.792 16.787l5.843 5.595c.698-6.682 1.049-10.022 1.749-16.705zM43.289 276.49c-2.298-2.316-3.448-3.476-5.747-5.791-.775 6.832-1.16 10.246-1.936 17.081 2.315 2.283 3.47 3.422 5.785 5.707l1.898-16.997zM69.565 353.758l-5.859-5.561-1.715 16.636c2.361 2.192 3.539 3.289 5.899 5.478l1.675-16.553zM53.522 286.807l-5.745-5.792-1.865 16.934c2.315 2.282 3.472 3.426 5.787 5.71.728-6.741 1.093-10.112 1.823-16.852zM48.688 333.948l-5.855-5.562-1.865 16.931 5.902 5.479c.728-6.739 1.089-10.11 1.818-16.848zM51.008 310.033l-5.802-5.677-1.866 16.934c2.337 2.237 3.507 3.356 5.844 5.596.73-6.741 1.095-10.112 1.824-16.853zM28.368 306.956c.788-6.858 1.181-10.289 1.968-17.149-2.321-2.269-3.479-3.405-5.8-5.677-.805 6.894-1.207 10.34-2.011 17.231l5.843 5.595zM0 0v410.138h4.164l17.291-169.375 78.753-40.902 34.24 65.828 51.559 2.3c-1.77-6.068-2.735-12.483-2.735-19.129 0-3.581.29-7.093.821-10.523h-7.443c-2.032-5.75-3.049-8.624-5.082-14.373h9.275c1.542 4.665 2.467 7.457 3.774 11.407 1.22-6.078 3.238-11.864 5.955-17.234h-3.917c-1.794-5.75-2.692-8.623-4.487-14.373h9.734l2.328 8.044c1.979-3.044 4.181-5.93 6.607-8.608l-10.589-27.625h-99.55l53.896-54.963 26.632.639-5.708-22.368 32.338-31.955 14.583 125.904-.798.759c10.971-7.847 24.366-12.475 38.842-12.475 12.798 0 24.759 3.606 34.941 9.864l14.518-125.332 32.337 31.956-5.706 22.369 26.632-.64 53.896 54.963h-99.55l-10.036 26.185c2.201 2.174 4.245 4.505 6.133 6.963l.52-1.911c4.094-.006 6.139-.003 10.222.012-1.559 5.267-2.401 8.144-3.824 12.96 1.62 3.249 2.995 6.642 4.086 10.164l.835-2.627c3.848.072 5.769.117 9.6.21-2.018 5.889-3.038 8.848-5.161 14.877l-2.687-.083c.293 2.566.459 5.17.459 7.815 0 6.829-1.013 13.417-2.876 19.633l48.529-2.165 34.24-65.827.027.135.003-.03 78.753 40.904 17.792 168.629h5.834v-410.14h-500zm112.813 203.763h9.732l6.493 14.373h-9.405c-2.73-5.75-4.093-8.623-6.82-14.373zm16.03 34.573l-6.833-14.373h9.274c2.602 5.749 3.902 8.623 6.502 14.371l-8.943.002zm1.306-34.573h9.735c2.364 5.749 3.544 8.623 5.909 14.373h-9.407c-2.494-5.75-3.742-8.623-6.237-14.373zm14.628 34.573c-2.5-5.749-3.75-8.624-6.249-14.373h9.274c2.368 5.749 3.554 8.623 5.923 14.373h-8.948zm15.937 0l-5.665-14.373h9.274c2.136 5.749 3.203 8.623 5.337 14.371l-8.946.002zm25.454-54.384l4.159 14.373h-9.857c-1.793-5.749-2.692-8.625-4.486-14.373h10.184zm-6.862 34.184h-9.406c-2.028-5.75-3.042-8.623-5.071-14.373h9.734c1.898 5.75 2.846 8.623 4.743 14.373zm-11.279-34.184l4.744 14.373-9.859-.002c-2.027-5.75-3.043-8.623-5.07-14.371h10.185zm-5.478 34.184h-9.408c-2.262-5.75-3.39-8.623-5.65-14.373h9.734c2.129 5.75 3.194 8.623 5.324 14.373zm-12.665-34.184l5.325 14.373-9.858-.002-5.653-14.37 10.186-.001zm-18.143-.002l5.907 14.375h-9.858l-6.234-14.373 10.185-.002zm-18.143.002l6.492 14.373-9.858-.002c-2.728-5.748-4.092-8.623-6.818-14.371h10.184zm135.312-171.506l10.495 51.13h-21.865l11.37-51.13zm-36.865 89.236c-.998-9.529-1.499-14.293-2.496-23.822h9.783c.75 9.529 1.127 14.292 1.878 23.822h-9.165zm.944 9.015h8.932c.75 9.53 1.127 14.293 1.878 23.824h-8.314c-.999-9.53-1.498-14.294-2.496-23.824zm5.692 57.306c-1.008-9.529-1.514-14.292-2.521-23.823h8.064c.761 9.53 1.142 14.294 1.904 23.823h-7.447zm8.294-90.144h9.784c.311 9.529.467 14.292.777 23.822h-9.164l-1.397-23.822zm1.923 32.838h8.933l.777 23.824h-8.313c-.557-9.53-.838-14.294-1.397-23.824zm3.047 57.305l-1.42-23.822h8.063l.805 23.823-7.448-.001zm20.712.001h-7.447c-.128-9.529-.194-14.292-.323-23.823h8.064c-.116 9.529-.175 14.294-.294 23.823zm.762-33.482l-8.313.001-.296-23.825h8.932l-.323 23.824zm.444-32.839h-9.167c-.118-9.53-.176-14.293-.295-23.822h9.785l-.323 23.822zm12.059 66.321h-7.448c.313-9.529.47-14.292.781-23.823h8.062c-.559 9.53-.838 14.294-1.395 23.823zm2.31-33.482h-8.318c.321-9.53.485-14.295.807-23.825h8.93c-.568 9.531-.849 14.295-1.419 23.825zm1.956-32.84h-9.166c.322-9.529.483-14.293.806-23.822h9.782c-.568 9.529-.851 14.292-1.422 23.822zm8.997 66.322h-7.445c.75-9.529 1.126-14.292 1.877-23.822l8.062-.001c-.999 9.53-1.496 14.294-2.494 23.823zm3.852-33.482h-8.312c.763-9.53 1.142-14.294 1.903-23.824h8.933c-1.01 9.53-1.512 14.294-2.524 23.824zm3.479-32.839h-9.167c.763-9.529 1.145-14.293 1.907-23.822h9.781c-1.009 9.528-1.514 14.292-2.521 23.822zm80.534 83.547h10.709c-2.641 6.062-3.951 9.071-6.557 15.087-4.135-.014-6.2-.023-10.329-.047 2.447-5.983 3.679-8.984 6.177-15.04zm1.689 20.773l-6.497 15.008c-3.912-.06-5.859-.096-9.761-.173 2.438-5.97 3.651-8.945 6.085-14.914 4.068.037 6.099.053 10.173.079zm-20.765-20.773h10.707c-2.385 6.049-3.552 9.036-5.87 14.991l-10.315-.064c2.151-5.918 3.238-8.888 5.478-14.927zm2.652 20.617c-2.306 5.939-3.452 8.895-5.758 14.832-3.895-.085-5.837-.128-9.729-.214 2.135-5.894 3.19-8.826 5.328-14.721 4.064.039 6.095.063 10.159.103zm-21.725-20.617h10.708c-2.128 6.031-3.15 8.99-5.178 14.882-4.128-.023-6.193-.034-10.328-.05 1.866-5.86 2.812-8.804 4.798-14.832zm-23.237 14.808c1.598-5.829 2.41-8.766 4.164-14.808h10.707c-1.88 6.029-2.765 8.967-4.511 14.809-4.138-.008-6.212-.008-10.36-.001zm12.1 20.092l4.59-14.542c4.071.027 6.107.044 10.174.082-2.006 5.863-2.996 8.773-5.003 14.637-3.898-.079-5.85-.116-9.761-.177zm18.509 21.555c-3.672-.127-5.501-.192-9.172-.32 2.233-6.035 3.315-9.007 5.463-14.925 3.827.101 5.738.154 9.566.256-2.313 5.953-3.477 8.939-5.857 14.989zm16.394.496c-3.698-.089-5.54-.143-9.218-.259 2.494-6.058 3.723-9.057 6.161-15.039 3.833.094 5.747.139 9.593.212-2.6 6.014-3.9 9.024-6.536 15.086zm16.593.222c-3.76-.003-5.63-.021-9.35-.078 2.738-6.059 4.106-9.078 6.825-15.11 3.863.051 5.802.069 9.694.08l-7.169 15.108zm10.484-21.234c-3.951-.006-5.92-.019-9.848-.059 2.725-6.026 4.086-9.037 6.809-15.066 4.083.015 6.128.017 10.225.013-2.874 6.043-4.313 9.066-7.186 15.112zm9.9-20.83c-4.147.009-6.225.008-10.362 0 2.727-6.031 4.094-9.05 6.838-15.108h10.708c-2.875 6.043-4.311 9.064-7.184 15.108z"/></svg>