<svg xmlns="http://www.w3.org/2000/svg" width="980" height="50" viewBox="0 0 980 50"><g fill="#fff"><path d="M675.248 7.947c-3.119 0-5.25.98-6.39 2.94-1.14 1.96-1.71 5.68-1.71 11.16 0 5.481.57 9.201 1.71 11.161 1.14 1.959 3.271 2.939 6.39 2.939 3.12 0 5.25-.98 6.391-2.939 1.14-1.96 1.71-5.68 1.71-11.161 0-5.479-.57-9.2-1.71-11.16-1.141-1.96-3.271-2.94-6.391-2.94zM823.567 8.247h-1.62c-.08.4-.22 1.041-.42 1.92-.2.88-.359 1.541-.479 1.98l-3.48 12.66h10.32l-3.48-12.66c-.48-2-.761-3.3-.841-3.9zM299.053 7.827l-6.6.06v11.64h6.6c2.4 0 4.04-.41 4.92-1.23.88-.819 1.32-2.37 1.32-4.65 0-2.28-.431-3.819-1.29-4.62-.86-.8-2.511-1.2-4.95-1.2zM782.168 7.827l-6.42.06v12.96h6.42c2.359-.04 3.969-.5 4.83-1.38.859-.879 1.29-2.6 1.29-5.16s-.431-4.28-1.29-5.16c-.861-.88-2.471-1.32-4.83-1.32zM61.934 8.247h-1.62c-.081.4-.221 1.041-.42 1.92-.2.88-.36 1.541-.48 1.98l-3.48 12.66h10.32l-3.48-12.66c-.48-2-.76-3.3-.84-3.9zM0 0v50h980v-50h-980zm71.234 42.746l-3-10.859h-14.22l-3 10.859h-9.36l11.94-39c.159-.72.54-1.299 1.14-1.74.6-.439 1.28-.66 2.04-.66h8.64c1.72 0 2.78.8 3.18 2.4l11.94 39h-9.3zm64.32-34.2h-14.82c-1.161 0-1.99.24-2.49.72-.5.48-.75 1.26-.75 2.34v7.08h15.84v6.66h-15.84v17.399h-9.18v-33c0-2.64.83-4.729 2.49-6.27 1.66-1.54 3.87-2.31 6.63-2.31 8.799 0 15 .22 18.6.66l-.48 6.721zm44.939 17.7c0 6.321-1.21 10.781-3.63 13.381-2.421 2.6-6.591 3.9-12.51 3.9-6.24 0-10.63-1.301-13.17-3.9-2.541-2.6-3.81-7.06-3.81-13.381v-24.899h9.12v24.899c0 3.801.53 6.4 1.59 7.801 1.06 1.4 3.009 2.1 5.85 2.1 2.799 0 4.729-.699 5.79-2.1 1.06-1.4 1.59-4 1.59-7.801v-24.899h9.18v24.899zm44.82-17.459h-12.36v33.959h-9.18v-33.959h-12.36v-7.44h33.9v7.44zm44.099 17.459c0 6.321-1.209 10.781-3.629 13.381s-6.59 3.9-12.51 3.9c-6.24 0-10.63-1.301-13.17-3.9-2.541-2.6-3.81-7.06-3.81-13.381v-24.899h9.12v24.899c0 3.801.53 6.4 1.59 7.801 1.06 1.4 3.009 2.1 5.85 2.1 2.799 0 4.729-.699 5.79-2.1 1.061-1.4 1.59-4 1.59-7.801v-24.899h9.18v24.899zm37.021 16.5l-3.12-12.66c-.399-1.319-.93-2.229-1.59-2.729-.66-.499-1.61-.75-2.85-.75l-6.42-.06v16.199h-9v-41.399c3.72-.36 8.979-.54 15.78-.54 5.559 0 9.499.88 11.819 2.64 2.319 1.76 3.48 4.96 3.48 9.6 0 3.041-.61 5.421-1.83 7.14-1.221 1.72-3.251 2.76-6.09 3.12v.3c3.159.72 5.119 2.8 5.88 6.24l3.6 12.899h-9.659zm46.919-24.839v6.6h-16.5v7.98c0 1.121.22 1.92.66 2.4s1.16.721 2.16.721h15.9l.42 6.719c-3.761.4-10.161.6-19.2.6-2.76 0-4.96-.75-6.6-2.25-1.641-1.5-2.481-3.529-2.521-6.09v-25.081c.039-2.559.88-4.59 2.521-6.09 1.64-1.5 3.84-2.25 6.6-2.25 9.039 0 15.439.201 19.2.6l-.42 6.78h-15.9c-1 0-1.72.24-2.16.72s-.66 1.26-.66 2.34v6.3h16.5zm50.279 25.56c-6.4 0-10.9-1.6-13.5-4.801-2.601-3.199-3.899-8.738-3.899-16.62 0-7.879 1.299-13.419 3.899-16.62 2.6-3.2 7.1-4.8 13.5-4.8 4.64 0 8.78.46 12.42 1.38l-.779 6.84c-3.24-.2-7.121-.3-11.641-.3-3 0-5.05.951-6.149 2.85-1.101 1.9-1.65 5.451-1.65 10.65 0 5.201.55 8.75 1.65 10.651 1.1 1.9 3.149 2.85 6.149 2.85 5.56 0 9.721-.18 12.48-.541l.78 6.781c-3.6 1.119-8.02 1.68-13.26 1.68zm34.261-.721h-9.12v-41.399h9.12v41.399zm45.179-33.959h-12.36v33.959h-9.18v-33.959h-12.36v-7.44h33.9v7.44zm20.4 33.959h-9.12v-41.399h9.12v41.399zm39.718-24.839v6.6h-16.5v7.98c0 1.121.22 1.92.66 2.4s1.16.721 2.16.721h15.9l.42 6.719c-3.761.4-10.161.6-19.2.6-2.76 0-4.96-.75-6.6-2.25-1.641-1.5-2.481-3.529-2.521-6.09v-25.081c.039-2.559.88-4.59 2.521-6.09 1.64-1.5 3.84-2.25 6.6-2.25 9.039 0 15.439.201 19.2.6l-.42 6.78h-15.9c-1 0-1.72.24-2.16.72s-.66 1.26-.66 2.34v6.3h16.5zm40.321 23.13c-2.241 1.66-6.24 2.49-12 2.49-4.681 0-9.42-.521-14.221-1.561l.54-6.6c8.521.199 13.08.299 13.681.299 2.439 0 4.069-.26 4.89-.779.819-.52 1.23-1.6 1.23-3.24 0-1.399-.28-2.39-.841-2.97-.561-.579-1.58-1.11-3.06-1.591l-8.34-2.939c-3.081-1.119-5.28-2.64-6.601-4.56-1.319-1.92-1.979-4.44-1.979-7.56 0-4.56 1.11-7.609 3.33-9.15 2.22-1.539 6.129-2.31 11.729-2.31 5.28 0 9.819.54 13.62 1.62l-.6 6.24c-3.48-.12-7.8-.18-12.96-.18-2.4 0-4.001.21-4.8.63-.801.42-1.2 1.47-1.2 3.15 0 1.36.3 2.34.899 2.94.601.6 1.74 1.18 3.42 1.74l7.86 2.7c3.2 1.12 5.46 2.65 6.78 4.59 1.32 1.94 1.979 4.47 1.979 7.589.003 4.642-1.117 7.792-3.356 9.452zm50.878 2.43c-6.4 0-10.9-1.6-13.5-4.801-2.601-3.199-3.899-8.738-3.899-16.62 0-7.879 1.299-13.419 3.899-16.62 2.6-3.2 7.1-4.8 13.5-4.8 4.64 0 8.78.46 12.42 1.38l-.779 6.84c-3.24-.2-7.121-.3-11.641-.3-3 0-5.05.951-6.149 2.85-1.101 1.9-1.65 5.451-1.65 10.65 0 5.201.55 8.75 1.65 10.651 1.1 1.9 3.149 2.85 6.149 2.85 5.56 0 9.721-.18 12.48-.541l.78 6.781c-3.6 1.119-8.02 1.68-13.26 1.68zm54.72-4.529c-2.601 3.059-7.221 4.59-13.86 4.59s-11.25-1.531-13.829-4.59c-2.58-3.061-3.87-8.69-3.87-16.891 0-8.199 1.29-13.83 3.87-16.89 2.579-3.06 7.189-4.59 13.829-4.59s11.26 1.53 13.86 4.59c2.6 3.06 3.9 8.69 3.9 16.89.001 8.2-1.3 13.83-3.9 16.891zm55.32 3.808l-1.38-34.259h-1.021l-6.24 25.621c-.399 1.959-1.641 2.939-3.72 2.939h-6c-2.08 0-3.32-.98-3.72-2.939l-6.3-25.621h-1.021l-1.2 34.259h-8.64l1.5-37.979c.12-2.28 1.26-3.42 3.42-3.42h8.82c1.959 0 3.159.98 3.6 2.94l5.04 20.64c.32 1.319.68 3.261 1.08 5.819h.78c.039-.199.189-1.02.45-2.459.26-1.44.47-2.56.63-3.36l4.979-20.64c.48-1.959 1.72-2.94 3.721-2.94h8.819c2.199 0 3.34 1.14 3.42 3.42l1.62 37.979h-8.637zm50.01-17.729c-2.021 1.9-5.65 2.851-10.89 2.851-2.64 0-5.241-.16-7.8-.48v15.359h-9.12v-41.4c3.72-.36 8.96-.54 15.72-.54 5.8 0 9.77.94 11.91 2.82 2.14 1.881 3.21 5.44 3.21 10.68 0 5.24-1.011 8.81-3.03 10.71zm38.429 17.729l-3-10.859h-14.22l-3 10.859h-9.36l11.94-39c.159-.72.54-1.299 1.14-1.74.601-.439 1.28-.66 2.04-.66h8.641c1.719 0 2.779.8 3.18 2.4l11.94 39h-9.301zm54.481-3.299c0 2.199-1.08 3.299-3.24 3.299h-5.7c-.92 0-1.641-.209-2.16-.629s-1.02-1.111-1.5-2.07l-10.859-22.08c-1.36-2.919-2.2-5.06-2.521-6.42h-.659c.279 2.001.42 4.2.42 6.6v24.6h-8.7v-38.1c0-2.199 1.1-3.3 3.3-3.3h5.58c.92 0 1.64.21 2.16.63.52.42 1.02 1.11 1.5 2.07l10.5 21.42c.999 2 1.999 4.221 3 6.66h.6c-.24-3.121-.359-5.439-.359-6.96v-23.82h8.64v38.1zm33.059-10.381v13.68h-9.181v-13.68l-13.68-27.72h9.54l6.9 15.18c.399.88.919 2.621 1.56 5.22h.6c.48-2.16.98-3.9 1.5-5.22l6.9-15.18h9.42l-13.559 27.72z"/></g></svg>