<!DOCTYPE svg PUBLIC "-//W3C//DTD SVG 1.1//EN" "http://www.w3.org/Graphics/SVG/1.1/DTD/svg11.dtd" [
	<!ENTITY ns_flows "http://ns.adobe.com/Flows/1.0/">
]><svg xmlns="http://www.w3.org/2000/svg" width="980" height="50" viewBox="0 0 980 50" overflow="visible"><path fill="#fff" d="M735.023 18.725c-.896 0-1.492.316-1.788.948s-.443 1.9-.443 3.804.147 3.173.443 3.805.893.947 1.788.947c.896 0 1.492-.315 1.788-.947s.444-1.9.444-3.805c0-1.903-.148-3.172-.444-3.804s-.891-.948-1.788-.948zM49.417 19.085h-.648c-.096.752-.191 1.384-.288 1.896l-.815 3.553h2.855l-.815-3.553c-.145-.752-.241-1.384-.289-1.896zM854.204 19.085h-.647c-.096.752-.192 1.384-.288 1.896l-.816 3.553h2.856l-.816-3.553c-.144-.752-.24-1.384-.289-1.896zM315.842 18.629h-1.801v3.408h1.801c.752 0 1.251-.112 1.5-.336.247-.225.372-.681.372-1.368s-.125-1.144-.372-1.368c-.249-.224-.748-.336-1.5-.336zM817.4 18.629h-1.68v3.888h1.68c.704 0 1.176-.128 1.416-.384s.36-.768.36-1.536c0-.783-.12-1.308-.36-1.572s-.712-.396-1.416-.396zM0 0v50h980v-50h-980zm52.201 31.757l-.841-3.576h-4.535l-.841 3.576h-5.304l4.296-15.216c.112-.4.328-.724.648-.973.319-.247.688-.371 1.104-.371h4.729c.416 0 .783.124 1.104.371.32.249.536.572.648.973l4.296 15.216h-5.304zm119.831-12.672h-5.784c-.32 0-.572.08-.756.24-.185.16-.276.368-.276.624v1.943h5.928v3.456h-5.928v6.408h-5.208v-12.887c0-1.12.368-2.028 1.104-2.725.735-.695 1.68-1.044 2.832-1.044 4.031 0 6.808.112 8.327.336l-.239 3.649zm37.922 5.832c0 2.64-.527 4.496-1.584 5.567-1.056 1.072-2.88 1.608-5.472 1.608-2.8 0-4.769-.536-5.904-1.608-1.136-1.071-1.704-2.928-1.704-5.567v-9.72h5.208v9.72c0 1.328.145 2.212.433 2.651.288.44.855.66 1.704.66.831 0 1.392-.22 1.68-.66.288-.439.432-1.323.432-2.651v-9.72h5.208v9.72zm37.454-5.832h-4.632v12.672h-5.208v-12.672h-4.632v-3.888h14.472v3.888zm37.647 5.832c0 2.64-.528 4.496-1.584 5.567-1.057 1.072-2.88 1.608-5.473 1.608-2.8 0-4.768-.536-5.903-1.608-1.137-1.071-1.704-2.928-1.704-5.567v-9.72h5.208v9.72c0 1.328.144 2.212.432 2.651.288.44.855.66 1.704.66.832 0 1.392-.22 1.68-.66.288-.439.433-1.323.433-2.651v-9.72h5.208v9.72zm33.091 6.84l-1.08-4.92c-.096-.448-.244-.748-.444-.9-.2-.151-.524-.228-.972-.228h-1.608v6.048h-5.111v-16.56c1.632-.16 3.976-.24 7.031-.24 2.496 0 4.284.368 5.364 1.104 1.08.736 1.62 2.049 1.62 3.937 0 2.399-1.12 3.712-3.36 3.936v.145c1.504.191 2.408 1.056 2.713 2.592l1.296 5.088h-5.449zm39.659-10.2v3.456h-6.191v1.992c0 .256.088.464.264.624s.416.24.72.24h6.072l.24 3.672c-1.601.208-4.473.312-8.616.312-1.136 0-2.068-.348-2.796-1.044-.729-.695-1.092-1.604-1.092-2.724v-9.216c0-1.12.363-2.028 1.092-2.725.728-.695 1.66-1.044 2.796-1.044 4.144 0 7.016.104 8.616.312l-.24 3.672h-6.072c-.304 0-.544.08-.72.24s-.264.368-.264.624v1.607h6.191zm84.936 10.488c-2.752 0-4.692-.64-5.82-1.92s-1.692-3.496-1.692-6.648c0-3.151.564-5.367 1.692-6.647s3.068-1.92 5.82-1.92c2.063 0 3.88.216 5.447.647l-.384 3.792c-2.24-.031-3.928-.048-5.063-.048-.816 0-1.36.276-1.632.828-.272.552-.408 1.668-.408 3.348 0 1.681.136 2.796.408 3.349.271.552.815.828 1.632.828 2.384 0 4.191-.064 5.424-.192l.384 3.792c-1.536.527-3.472.791-5.808.791zm34.101-.288h-5.159v-16.56h5.159v16.56zm37.512-12.672h-4.632v12.672h-5.208v-12.672h-4.632v-3.888h14.472v3.888zm28.211 12.672h-5.159v-16.56h5.159v16.56zm35.298-10.2v3.456h-6.192v1.992c0 .256.088.464.264.624s.416.24.721.24h6.071l.24 3.672c-1.6.208-4.472.312-8.616.312-1.136 0-2.067-.348-2.796-1.044-.728-.695-1.092-1.604-1.092-2.724v-9.216c0-1.12.364-2.028 1.092-2.725.729-.695 1.66-1.044 2.796-1.044 4.145 0 7.017.104 8.616.312l-.24 3.672h-6.071c-.305 0-.545.08-.721.24s-.264.368-.264.624v1.607h6.192zm35.867 9.408c-.977.752-2.744 1.128-5.304 1.128-2.16 0-4.297-.272-6.408-.816l.312-3.647c3.168.08 5.176.12 6.024.12.655 0 1.092-.04 1.308-.12s.324-.231.324-.456c0-.224-.076-.408-.229-.552-.151-.145-.452-.296-.899-.456l-3.288-1.44c-1.344-.592-2.296-1.268-2.856-2.027-.56-.76-.84-1.748-.84-2.965 0-1.855.504-3.132 1.513-3.827 1.008-.696 2.775-1.045 5.304-1.045 2.416 0 4.424.28 6.023.841l-.312 3.336c-1.92-.032-3.864-.048-5.832-.048-.608 0-1.017.04-1.224.119-.209.081-.312.249-.312.505 0 .224.1.412.3.563.2.152.58.34 1.141.564l3 1.248c1.359.592 2.319 1.271 2.88 2.04.56.768.84 1.768.84 3-.001 1.87-.489 3.183-1.465 3.935zm85.224 1.08c-2.752 0-4.692-.64-5.82-1.92s-1.692-3.496-1.692-6.648c0-3.151.564-5.367 1.692-6.647s3.068-1.92 5.82-1.92c2.063 0 3.88.216 5.447.647l-.384 3.792c-2.24-.031-3.928-.048-5.063-.048-.816 0-1.36.276-1.632.828-.272.552-.408 1.668-.408 3.348 0 1.681.136 2.796.408 3.349.271.552.815.828 1.632.828 2.384 0 4.191-.064 5.424-.192l.384 3.792c-1.536.527-3.472.791-5.808.791zm43.029-3.276c-.512 1.24-1.308 2.104-2.388 2.592-1.08.488-2.604.732-4.572.732-1.952 0-3.468-.244-4.548-.732-1.08-.487-1.876-1.352-2.388-2.592-.513-1.239-.769-3.004-.769-5.292s.256-4.052.769-5.292c.512-1.239 1.308-2.104 2.388-2.592s2.596-.732 4.548-.732c1.969 0 3.492.244 4.572.732s1.876 1.353 2.388 2.592c.513 1.24.769 3.004.769 5.292s-.256 4.052-.769 5.292zm40.162 2.988l-.504-12.672h-.36l-1.632 8.448c-.176 1.056-.832 1.584-1.968 1.584h-2.688c-1.136 0-1.8-.528-1.991-1.584l-1.656-8.448h-.36l-.408 12.672h-4.68l.576-14.76c.048-1.2.655-1.8 1.824-1.8h4.487c1.12 0 1.776.536 1.969 1.607l1.199 6.576c.08.513.168 1.336.265 2.472h.216c0-.048.036-.392.107-1.031.072-.641.133-1.12.181-1.44l1.128-6.576c.191-1.071.855-1.607 1.992-1.607h4.584c1.167 0 1.775.6 1.823 1.8l.576 14.76h-4.68zm40.896-6.744c-.896.784-2.496 1.176-4.801 1.176-.863 0-1.703-.048-2.52-.144v5.712h-5.208v-16.56c1.632-.16 3.968-.24 7.008-.24 2.641 0 4.444.392 5.412 1.176s1.452 2.272 1.452 4.464c.001 2.16-.447 3.632-1.343 4.416zm33.947 6.744l-.84-3.576h-4.536l-.84 3.576h-5.304l4.296-15.216c.111-.4.328-.724.647-.973.32-.247.688-.371 1.104-.371h4.728c.416 0 .784.124 1.104.371.319.249.536.572.647.973l4.297 15.216h-5.303zm43.362-1.8c0 1.2-.601 1.8-1.8 1.8h-1.992c-.496 0-.876-.111-1.141-.336-.264-.224-.556-.616-.876-1.176l-3.6-5.688c-.4-.72-.769-1.664-1.104-2.832h-.168c.16 1.12.24 2.128.24 3.024v7.008h-4.8v-14.76c0-1.2.6-1.8 1.8-1.8h1.992c.496 0 .872.111 1.128.336.256.224.552.616.888 1.176l3.456 5.424c.433.768.856 1.712 1.272 2.832h.168c-.145-1.184-.225-2.184-.24-3v-6.768h4.776v14.76zm33.498-3.36v5.16h-5.208v-5.112l-5.496-11.447h5.353l2.088 5.208c.144.352.312 1.128.504 2.327h.312c.192-1.167.36-1.951.504-2.352l2.064-5.184h5.352l-5.473 11.4z"/></svg>