<svg xmlns="http://www.w3.org/2000/svg" width="400" height="321.534" viewBox="0 0 400 321.534"><path d="M199.763 0l-9.193 41.339h17.678zM95.612 150.284l-7.97-.001c-2.206-4.647-3.308-6.972-5.513-11.619h8.234l5.249 11.62zM109.808 150.284h-7.97l-5.041-11.621 8.234-.001 4.777 11.622zM124.006 150.284l-7.97-.001c-1.828-4.648-2.743-6.972-4.571-11.618l8.236-.001 4.305 11.62zM138.204 150.284l-7.971-.001-4.099-11.619h8.235l3.835 11.62zM152.399 150.284h-7.969l-3.627-11.621h8.234c1.344 4.648 2.017 6.973 3.362 11.621zM102.846 166.301h-7.604c-2.206-4.648-3.309-6.972-5.513-11.62h7.868l5.249 11.62zM116.394 166.301h-7.606c-2.017-4.648-3.026-6.972-5.042-11.62h7.871c1.91 4.647 2.865 6.971 4.777 11.62zM129.94 166.301h-7.606c-1.829-4.648-2.741-6.972-4.569-11.62h7.87l4.305 11.62zM143.488 166.301h-7.604c-1.64-4.648-2.459-6.972-4.1-11.62h7.87c1.534 4.648 2.301 6.971 3.834 11.62zM109.92 182.631l-7.231.002-5.524-11.621h7.498l5.257 11.619zM122.806 182.633h-7.234c-2.021-4.648-3.032-6.973-5.052-11.621h7.498c1.914 4.648 2.872 6.971 4.788 11.621zM135.69 182.631l-7.233.002-4.581-11.621h7.499c1.727 4.648 2.589 6.971 4.315 11.619zM254.025 151.669c-3.346-.006-5.022-.006-8.376-.001 1.291-4.713 1.948-7.086 3.366-11.972h8.656c-1.519 4.874-2.233 7.25-3.646 11.973zM268.908 151.728c-3.338-.018-5.008-.027-8.351-.04 1.508-4.738 2.273-7.119 3.879-11.992h8.657c-1.719 4.876-2.546 7.268-4.185 12.032zM283.768 151.816l-8.341-.052c1.74-4.785 2.619-7.186 4.43-12.068h8.657c-1.929 4.89-2.872 7.305-4.746 12.12zM298.637 151.894c-3.343-.012-5.013-.019-8.351-.038 1.979-4.838 2.974-7.264 4.994-12.161h8.657c-2.134 4.901-3.194 7.335-5.3 12.199zM313.547 151.911c-3.354.007-5.032.006-8.378 0 2.204-4.876 3.31-7.317 5.528-12.215h8.657l-5.807 12.215zM263.323 168.055c-3.151-.063-4.729-.093-7.892-.143l3.711-11.757c3.292.021 4.938.035 8.226.065l-4.045 11.835zM277.346 168.355l-7.866-.172c1.726-4.766 2.579-7.137 4.308-11.902l8.214.083-4.656 11.991zM291.393 168.624c-3.163-.048-4.737-.077-7.892-.14 1.971-4.826 2.952-7.231 4.92-12.058 3.288.03 4.931.042 8.225.063-2.103 4.857-3.15 7.281-5.253 12.135zM305.543 168.752c-3.194-.005-4.786-.015-7.962-.047 2.203-4.873 3.304-7.307 5.505-12.182 3.302.012 4.954.014 8.267.01-2.324 4.887-3.487 7.331-5.81 12.219zM270.396 185.339l-7.415-.259c1.806-4.88 2.681-7.282 4.417-12.066l7.734.207c-1.87 4.813-2.811 7.227-4.736 12.118zM283.651 185.74c-2.99-.071-4.479-.115-7.453-.209 2.017-4.897 3.01-7.322 4.981-12.159 3.099.076 4.646.112 7.756.171-2.102 4.863-3.153 7.297-5.284 12.197zM297.066 185.92c-3.04-.002-4.552-.016-7.56-.062 2.215-4.898 3.32-7.34 5.519-12.217 3.124.041 4.69.056 7.838.064-2.318 4.887-3.478 7.328-5.797 12.215zM177.369 72.147h-7.41l-2.019-19.26h7.91c.607 7.704.911 11.555 1.519 19.26zM190.567 72.147h-7.409c-.452-7.705-.678-11.557-1.129-19.261h7.91l.628 19.261zM203.768 72.147h-7.412c-.095-7.705-.142-11.556-.238-19.26h7.911c-.105 7.704-.157 11.555-.261 19.26zM216.967 72.147h-7.41l.651-19.261h7.908c-.459 7.705-.689 11.556-1.149 19.261zM230.167 72.147h-7.412l1.542-19.261h7.908c-.814 7.705-1.223 11.556-2.038 19.261zM179.461 98.698h-6.723c-.807-7.705-1.21-11.557-2.018-19.262h7.221c.608 7.706.913 11.557 1.52 19.262zM191.435 98.698h-6.722c-.45-7.705-.678-11.557-1.129-19.261h7.222c.251 7.704.377 11.556.629 19.261zM203.409 98.698l-6.722.001-.239-19.262h7.221c-.104 7.704-.155 11.556-.26 19.261zM215.385 98.698h-6.725l.653-19.262h7.219c-.459 7.705-.687 11.557-1.147 19.262zM227.356 98.698h-6.721c.617-7.705.923-11.557 1.538-19.262h7.223l-2.04 19.262zM181.344 125.768h-6.021l-2.039-19.261h6.52c.615 7.705.924 11.557 1.54 19.261zM192.068 125.768l-6.021-.001c-.458-7.704-.689-11.555-1.148-19.26h6.519l.65 19.261zM202.792 125.768h-6.02l-.261-19.261h6.52c-.094 7.705-.142 11.557-.239 19.261zM213.518 125.768h-6.021c.252-7.704.378-11.556.631-19.261h6.518c-.453 7.705-.677 11.557-1.128 19.261zM224.24 125.768h-6.02l1.518-19.26 6.518-.001-2.016 19.261zM252.105 250.623l-9.69-2.2-1.586-22.845 10.081 2.568c.477 8.99.719 13.486 1.195 22.477zM269.367 254.544c-3.877-.881-5.815-1.323-9.692-2.203-.354-8.875-.532-13.313-.887-22.188l10.082 2.568.497 21.823zM286.629 258.461c-3.877-.88-5.815-1.319-9.692-2.2-.076-8.614-.114-12.921-.188-21.534 4.033 1.027 6.052 1.54 10.085 2.566-.083 8.468-.123 12.701-.205 21.168zM303.891 262.379l-9.69-2.2c.205-8.352.307-12.526.511-20.879 4.033 1.027 6.052 1.541 10.085 2.567l-.906 20.512zM321.153 266.298l-9.688-2.199 1.209-20.226 10.083 2.568c-.641 7.943-.961 11.914-1.604 19.857zM253.751 281.606l-9.149-1.693-1.586-22.845c3.816.824 5.724 1.237 9.54 2.062.476 8.991.716 13.485 1.195 22.476zM270.048 284.624c-3.658-.677-5.489-1.018-9.149-1.693l-.887-22.19c3.816.823 5.725 1.235 9.542 2.061l.494 21.822zM286.347 287.64l-9.149-1.693-.188-21.537c3.816.826 5.726 1.237 9.542 2.062-.083 8.466-.123 12.7-.205 21.168zM302.646 289.885c-3.659-.778-5.489-1.167-9.149-1.943.204-9.582.306-14.374.511-23.958l9.542 2.365-.904 23.536zM318.942 293.674l-9.147-1.693 1.209-20.229 9.542 2.062-1.604 19.86zM255.071 313.146c-3.44-.47-5.159-.704-8.598-1.176l-1.604-22.86 8.989 1.545c.486 8.997.728 13.495 1.213 22.491zM270.387 315.243c-3.438-.47-5.159-.704-8.6-1.176l-.902-22.205c3.596.618 5.391.927 8.987 1.544.204 8.736.31 13.105.515 21.837zM285.702 317.341c-3.44-.472-5.159-.706-8.6-1.176l-.204-21.552 8.989 1.544c-.073 8.474-.111 12.711-.185 21.184zM301.018 319.437l-8.6-1.177.495-20.897 8.991 1.546-.886 20.528zM316.331 321.534c-3.438-.472-5.157-.708-8.595-1.177.477-8.097.715-12.146 1.193-20.244l8.989 1.547c-.634 7.949-.952 11.925-1.587 19.874zM144.959 249.639l9.691-2.2 1.586-22.845-10.081 2.567c-.476 8.99-.718 13.485-1.196 22.478zM127.698 253.559l9.692-2.202.888-22.189-10.084 2.568-.496 21.823zM110.436 257.476c3.877-.88 5.816-1.319 9.693-2.2l.188-21.534c-4.034 1.027-6.052 1.541-10.086 2.566l.205 21.168zM93.174 261.394l9.691-2.2c-.205-8.352-.308-12.526-.512-20.878-4.033 1.027-6.051 1.54-10.084 2.566l.905 20.512zM75.912 265.313l9.689-2.199-1.209-20.226c-4.033 1.026-6.051 1.54-10.083 2.567.641 7.943.961 11.916 1.603 19.858zM143.314 280.621c3.66-.676 5.489-1.015 9.148-1.693.635-9.137.953-13.707 1.587-22.845-3.817.824-5.724 1.237-9.54 2.062-.477 8.991-.717 13.485-1.195 22.476zM127.017 283.639c3.66-.677 5.49-1.017 9.15-1.692l.888-22.191c-3.817.823-5.726 1.235-9.542 2.061-.199 8.729-.298 13.092-.496 21.822zM110.719 286.655l9.149-1.694c.075-8.615.112-12.922.188-21.537l-9.542 2.062.205 21.169zM94.419 289.672l9.149-1.693-.51-20.883c-3.817.826-5.726 1.237-9.542 2.061.362 8.206.542 12.311.903 20.515zM78.124 292.688c3.66-.677 5.488-1.016 9.148-1.692-.485-8.092-.726-12.138-1.21-20.229l-9.542 2.062c.641 7.943.962 11.916 1.604 19.859zM141.995 312.161c3.439-.47 5.158-.703 8.596-1.176l1.605-22.858c-3.596.616-5.395.926-8.99 1.543l-1.211 22.491zM126.678 314.259c3.439-.47 5.16-.706 8.599-1.177.361-8.881.542-13.322.904-22.204l-8.989 1.543c-.203 8.735-.309 13.104-.514 21.838zM111.364 316.355c3.439-.473 5.159-.705 8.598-1.176l.205-21.551-8.99 1.543.187 21.184zM96.048 318.451c3.439-.471 5.159-.707 8.598-1.177-.198-8.358-.295-12.538-.494-20.897-3.597.618-5.396.93-8.993 1.547.357 8.211.534 12.316.889 20.527zM80.734 320.548l8.596-1.176-1.194-20.244c-3.596.618-5.394.93-8.99 1.547l1.588 19.873zM199.736 192.477c-1.988 0-3.6-1.625-3.6-3.628v-24.854c0-2.005 1.612-3.629 3.6-3.629 1.987 0 3.6 1.625 3.6 3.629v24.854c0 2.003-1.612 3.628-3.6 3.628zM199.736 212.438c-13.004 0-23.582-10.663-23.582-23.77 0-6.253 2.394-12.161 6.739-16.632 1.392-1.43 3.671-1.453 5.091-.053 1.42 1.403 1.444 3.7.052 5.131-3.02 3.107-4.683 7.21-4.683 11.554 0 9.105 7.35 16.513 16.383 16.513 9.035 0 16.382-7.407 16.382-16.513 0-4.427-1.716-8.584-4.833-11.707-1.408-1.413-1.416-3.711-.014-5.13 1.402-1.422 3.681-1.428 5.09-.016 4.486 4.496 6.955 10.48 6.955 16.853.001 13.107-10.576 23.77-23.58 23.77zM246.467 321.534l-12.964-23.261-.216-1.661h-67.002l-14.089 24.922zM168.857 290.558h62.02l2.115 3.792-10.7-82.312-22.557 26.869-22.557-26.869-10.423 82.275 2.102-3.755zm28.826-49.698h4.433l4.404 6.054h-13.25l4.413-6.054zm-14.996 24.974h34.392l3.379 6.053h-41.158l3.387-6.053zM79.537 151.525l-63.672 33.07-13.98 136.939h15.077l-.346-.407 52.291-12.401-3.133-72.888 86.016-19.039 6.694-1.529c-4.016-7.122-6.321-15.352-6.321-24.129 0-27.016 21.728-48.917 48.531-48.917 26.803 0 48.531 21.901 48.531 48.917 0 9.154-2.501 17.716-6.842 25.043l6.229 1.425.052-.091 85.71 18.515-3.125 72.693 52.29 12.401-.371.407h14.884l-14.385-136.337-63.672-33.07-.003.023-.021-.109-27.684 53.222-39.236 1.75c1.507-5.025 2.325-10.352 2.325-15.873 0-2.139-.134-4.244-.37-6.318l2.172.066c1.716-4.875 2.541-7.267 4.173-12.027-3.098-.075-4.651-.111-7.762-.17l-.675 2.124c-.882-2.848-1.994-5.591-3.304-8.218 1.15-3.895 1.831-6.22 3.092-10.478-3.301-.012-4.954-.014-8.265-.01l-.419 1.545c-1.527-1.988-3.18-3.873-4.959-5.63l8.114-21.17h80.486l-43.575-44.438-21.531.517 4.613-18.085-26.145-25.836-11.738 101.331c-8.232-5.06-17.902-7.976-28.25-7.976-11.704 0-22.534 3.742-31.404 10.086l.645-.614-11.789-101.792-26.145 25.836 4.614 18.085-21.532-.517-43.575 44.438h80.486l8.562 22.335c-1.961 2.166-3.741 4.498-5.341 6.959l-1.882-6.503h-7.87c1.451 4.648 2.177 6.972 3.627 11.62h3.167c-2.196 4.342-3.828 9.02-4.814 13.934l-3.051-9.223h-7.499c1.644 4.648 2.466 6.972 4.109 11.621h6.018c-.43 2.773-.664 5.612-.664 8.508 0 5.373.781 10.56 2.211 15.466l-41.686-1.859-27.683-53.222zm-60.124 106.252c-1.908-1.772-2.86-2.658-4.769-4.428l1.623-13.926c1.895 1.797 2.843 2.695 4.738 4.494l-1.592 13.86zm2.042-19.665c-1.889-1.81-2.834-2.715-4.724-4.523.65-5.572.975-8.358 1.626-13.932 1.876 1.837 2.812 2.755 4.689 4.59l-1.591 13.865zm-2.483-23.724l1.626-13.931 4.645 4.684c-.637 5.545-.958 8.317-1.594 13.863l-4.677-4.616zm8.941 51.28c-1.909-1.772-2.862-2.658-4.77-4.431.625-5.522.937-8.283 1.563-13.807 1.895 1.799 2.842 2.697 4.738 4.495l-1.531 13.743zm1.957-19.5l-4.724-4.523 1.567-13.811 4.691 4.59c-.614 5.497-.921 8.247-1.534 13.744zm-2.563-23.56l1.565-13.81 4.646 4.682-1.534 13.742c-1.871-1.847-2.805-2.768-4.677-4.614zm9.106 50.948l-4.772-4.429 1.508-13.688 4.734 4.497c-.589 5.447-.882 8.172-1.47 13.62zm1.871-19.33c-1.89-1.811-2.835-2.715-4.725-4.524l1.509-13.69 4.691 4.589-1.475 13.625zm-2.645-23.397l1.508-13.69 4.645 4.683-1.475 13.624-4.678-4.617zm9.271 50.617l-4.771-4.431 1.448-13.566 4.735 4.496c-.567 5.4-.847 8.1-1.412 13.501zm1.79-19.165l-4.724-4.523 1.449-13.572c1.876 1.837 2.813 2.755 4.69 4.59l-1.415 13.505zm-2.728-23.23l1.449-13.572 4.645 4.683c-.565 5.401-.848 8.102-1.414 13.505-1.871-1.847-2.808-2.77-4.68-4.616zm9.435 50.283l-4.769-4.428 1.387-13.45 4.737 4.495-1.355 13.383zm1.71-18.995l-4.724-4.524 1.388-13.452 4.692 4.59c-.543 5.354-.814 8.03-1.356 13.386zm1.868-18.453l-4.679-4.615 1.389-13.452 4.648 4.683c-.543 5.352-.816 8.029-1.358 13.384zm6.065-19.078l-46.084-47.089 62.239-32.552-16.155 79.641zm279.301 6.726l4.648-4.682 1.39 13.451c-1.873 1.847-2.808 2.771-4.68 4.615l-1.358-13.384zm1.87 18.451c1.877-1.835 2.816-2.754 4.692-4.59.557 5.382.833 8.07 1.388 13.452-1.889 1.81-2.834 2.715-4.724 4.524l-1.356-13.386zm3.066 32.383c-.543-5.353-.813-8.03-1.355-13.383l4.737-4.496 1.386 13.45-4.768 4.429zm3.34-59.174l4.646-4.683 1.447 13.572c-1.87 1.847-2.808 2.77-4.68 4.615-.563-5.401-.846-8.101-1.413-13.504zm1.953 18.615c1.876-1.834 2.813-2.753 4.689-4.59l1.448 13.572c-1.889 1.811-2.834 2.715-4.725 4.523-.563-5.401-.847-8.102-1.412-13.505zm3.204 32.67c-.565-5.401-.846-8.101-1.412-13.501l4.736-4.495 1.447 13.566-4.771 4.43zm3.117-59.625l4.646-4.683 1.508 13.691c-1.872 1.845-2.808 2.769-4.678 4.616-.59-5.449-.885-8.174-1.476-13.624zm2.034 18.779l4.691-4.589 1.509 13.691-4.725 4.523c-.591-5.449-.885-8.175-1.475-13.625zm3.345 32.956l-1.47-13.62c1.896-1.798 2.84-2.698 4.734-4.497l1.508 13.689c-1.907 1.772-2.863 2.657-4.772 4.428zm2.897-60.074c1.858-1.873 2.787-2.811 4.646-4.683.627 5.523.938 8.285 1.563 13.81l-4.676 4.614c-.614-5.498-.921-8.245-1.533-13.741zm2.114 18.942l4.689-4.59 1.568 13.811c-1.891 1.809-2.836 2.715-4.724 4.523-.614-5.497-.921-8.246-1.533-13.744zm6.16-27.283l4.646-4.683c.651 5.572.976 8.358 1.626 13.93l-4.678 4.616-1.594-13.863zm-2.67 60.527l-1.531-13.741 4.737-4.495c.627 5.522.938 8.283 1.564 13.806l-4.77 4.43zm13.27-12.318l-4.771 4.428-1.592-13.859c1.896-1.798 2.844-2.697 4.737-4.495l1.626 13.926zm-2.087-19.761l-4.725 4.523-1.592-13.865c1.877-1.834 2.813-2.753 4.69-4.59.651 5.574.975 8.359 1.627 13.932zm-1.398-48.3l-46.137 47.176-16.111-79.734 62.248 32.558z"/></svg>